<?xml version="1.0" encoding="utf-8" standalone="no"?>
<!DOCTYPE svg PUBLIC "-//W3C//DTD SVG 1.1//EN"
  "http://www.w3.org/Graphics/SVG/1.1/DTD/svg11.dtd">
<svg height="261.959875pt" version="1.1" viewBox="0 0 381.03875 261.959875" width="381.03875pt" xmlns="http://www.w3.org/2000/svg" xmlns:xlink="http://www.w3.org/1999/xlink">
 <metadata>
  <rdf:RDF xmlns:cc="http://creativecommons.org/ns#" xmlns:dc="http://purl.org/dc/elements/1.1/" xmlns:rdf="http://www.w3.org/1999/02/22-rdf-syntax-ns#">
   <cc:Work>
    <dc:type rdf:resource="http://purl.org/dc/dcmitype/StillImage"/>
    <dc:date>2023-03-15T00:09:59.214405</dc:date>
    <dc:format>image/svg+xml</dc:format>
    <dc:creator>
     <cc:Agent>
      <dc:title>Matplotlib v3.4.2, https://matplotlib.org/</dc:title>
     </cc:Agent>
    </dc:creator>
   </cc:Work>
  </rdf:RDF>
 </metadata>
 <defs>
  <style type="text/css">*{stroke-linecap:butt;stroke-linejoin:round;}</style>
 </defs>
 <g id="figure_1">
  <g id="patch_1">
   <path d="M 0 261.959875 
L 381.03875 261.959875 
L 381.03875 0 
L 0 0 
z
" style="fill:none;"/>
  </g>
  <g id="axes_1">
   <g id="patch_2">
    <path d="M 39.03875 241.58175 
L 373.83875 241.58175 
L 373.83875 24.14175 
L 39.03875 24.14175 
z
" style="fill:#eeeeee;"/>
   </g>
   <g id="patch_3">
    <path clip-path="url(#p1b88afeb42)" d="M 46.01375 241.58175 
L 59.96375 241.58175 
L 59.96375 241.58175 
L 46.01375 241.58175 
z
" style="fill:#348abd;"/>
   </g>
   <g id="patch_4">
    <path clip-path="url(#p1b88afeb42)" d="M 73.91375 241.58175 
L 87.86375 241.58175 
L 87.86375 241.58175 
L 73.91375 241.58175 
z
" style="fill:#348abd;"/>
   </g>
   <g id="patch_5">
    <path clip-path="url(#p1b88afeb42)" d="M 101.81375 241.58175 
L 115.76375 241.58175 
L 115.76375 238.865585 
L 101.81375 238.865585 
z
" style="fill:#348abd;"/>
   </g>
   <g id="patch_6">
    <path clip-path="url(#p1b88afeb42)" d="M 129.71375 241.58175 
L 143.66375 241.58175 
L 143.66375 172.767639 
L 129.71375 172.767639 
z
" style="fill:#348abd;"/>
   </g>
   <g id="patch_7">
    <path clip-path="url(#p1b88afeb42)" d="M 157.61375 241.58175 
L 171.56375 241.58175 
L 171.56375 137.305007 
L 157.61375 137.305007 
z
" style="fill:#348abd;"/>
   </g>
   <g id="patch_8">
    <path clip-path="url(#p1b88afeb42)" d="M 185.51375 241.58175 
L 199.46375 241.58175 
L 199.46375 189.283025 
L 185.51375 189.283025 
z
" style="fill:#348abd;"/>
   </g>
   <g id="patch_9">
    <path clip-path="url(#p1b88afeb42)" d="M 213.41375 241.58175 
L 227.36375 241.58175 
L 227.36375 168.206921 
L 213.41375 168.206921 
z
" style="fill:#348abd;"/>
   </g>
   <g id="patch_10">
    <path clip-path="url(#p1b88afeb42)" d="M 241.31375 241.58175 
L 255.26375 241.58175 
L 255.26375 169.282172 
L 241.31375 169.282172 
z
" style="fill:#348abd;"/>
   </g>
   <g id="patch_11">
    <path clip-path="url(#p1b88afeb42)" d="M 269.21375 241.58175 
L 283.16375 241.58175 
L 283.16375 235.99792 
L 269.21375 235.99792 
z
" style="fill:#348abd;"/>
   </g>
   <g id="patch_12">
    <path clip-path="url(#p1b88afeb42)" d="M 297.11375 241.58175 
L 311.06375 241.58175 
L 311.06375 241.58175 
L 297.11375 241.58175 
z
" style="fill:#348abd;"/>
   </g>
   <g id="patch_13">
    <path clip-path="url(#p1b88afeb42)" d="M 325.01375 241.58175 
L 338.96375 241.58175 
L 338.96375 241.58175 
L 325.01375 241.58175 
z
" style="fill:#348abd;"/>
   </g>
   <g id="patch_14">
    <path clip-path="url(#p1b88afeb42)" d="M 352.91375 241.58175 
L 366.86375 241.58175 
L 366.86375 241.58175 
L 352.91375 241.58175 
z
" style="fill:#348abd;"/>
   </g>
   <g id="patch_15">
    <path clip-path="url(#p1b88afeb42)" d="M 46.01375 241.58175 
L 59.96375 241.58175 
L 59.96375 241.58175 
L 46.01375 241.58175 
z
" style="fill:#a60628;"/>
   </g>
   <g id="patch_16">
    <path clip-path="url(#p1b88afeb42)" d="M 73.91375 241.58175 
L 87.86375 241.58175 
L 87.86375 238.11891 
L 73.91375 238.11891 
z
" style="fill:#a60628;"/>
   </g>
   <g id="patch_17">
    <path clip-path="url(#p1b88afeb42)" d="M 101.81375 238.865585 
L 115.76375 238.865585 
L 115.76375 219.880957 
L 101.81375 219.880957 
z
" style="fill:#a60628;"/>
   </g>
   <g id="patch_18">
    <path clip-path="url(#p1b88afeb42)" d="M 129.71375 172.767639 
L 143.66375 172.767639 
L 143.66375 149.754508 
L 129.71375 149.754508 
z
" style="fill:#a60628;"/>
   </g>
   <g id="patch_19">
    <path clip-path="url(#p1b88afeb42)" d="M 157.61375 137.305007 
L 171.56375 137.305007 
L 171.56375 112.478804 
L 157.61375 112.478804 
z
" style="fill:#a60628;"/>
   </g>
   <g id="patch_20">
    <path clip-path="url(#p1b88afeb42)" d="M 185.51375 189.283025 
L 199.46375 189.283025 
L 199.46375 187.688348 
L 185.51375 187.688348 
z
" style="fill:#a60628;"/>
   </g>
   <g id="patch_21">
    <path clip-path="url(#p1b88afeb42)" d="M 213.41375 168.206921 
L 227.36375 168.206921 
L 227.36375 155.843007 
L 213.41375 155.843007 
z
" style="fill:#a60628;"/>
   </g>
   <g id="patch_22">
    <path clip-path="url(#p1b88afeb42)" d="M 241.31375 169.282172 
L 255.26375 169.282172 
L 255.26375 166.720457 
L 241.31375 166.720457 
z
" style="fill:#a60628;"/>
   </g>
   <g id="patch_23">
    <path clip-path="url(#p1b88afeb42)" d="M 269.21375 235.99792 
L 283.16375 235.99792 
L 283.16375 221.506131 
L 269.21375 221.506131 
z
" style="fill:#a60628;"/>
   </g>
   <g id="patch_24">
    <path clip-path="url(#p1b88afeb42)" d="M 297.11375 241.58175 
L 311.06375 241.58175 
L 311.06375 234.407178 
L 297.11375 234.407178 
z
" style="fill:#a60628;"/>
   </g>
   <g id="patch_25">
    <path clip-path="url(#p1b88afeb42)" d="M 325.01375 241.58175 
L 338.96375 241.58175 
L 338.96375 227.989118 
L 325.01375 227.989118 
z
" style="fill:#a60628;"/>
   </g>
   <g id="patch_26">
    <path clip-path="url(#p1b88afeb42)" d="M 352.91375 241.58175 
L 366.86375 241.58175 
L 366.86375 229.595601 
L 352.91375 229.595601 
z
" style="fill:#a60628;"/>
   </g>
   <g id="patch_27">
    <path clip-path="url(#p1b88afeb42)" d="M 46.01375 241.58175 
L 59.96375 241.58175 
L 59.96375 160.367326 
L 46.01375 160.367326 
z
" style="fill:#7a68a6;"/>
   </g>
   <g id="patch_28">
    <path clip-path="url(#p1b88afeb42)" d="M 73.91375 238.11891 
L 87.86375 238.11891 
L 87.86375 190.956403 
L 73.91375 190.956403 
z
" style="fill:#7a68a6;"/>
   </g>
   <g id="patch_29">
    <path clip-path="url(#p1b88afeb42)" d="M 101.81375 219.880957 
L 115.76375 219.880957 
L 115.76375 217.46779 
L 101.81375 217.46779 
z
" style="fill:#7a68a6;"/>
   </g>
   <g id="patch_30">
    <path clip-path="url(#p1b88afeb42)" d="M 129.71375 149.754508 
L 143.66375 149.754508 
L 143.66375 143.107232 
L 129.71375 143.107232 
z
" style="fill:#7a68a6;"/>
   </g>
   <g id="patch_31">
    <path clip-path="url(#p1b88afeb42)" d="M 157.61375 112.478804 
L 171.56375 112.478804 
L 171.56375 102.040111 
L 157.61375 102.040111 
z
" style="fill:#7a68a6;"/>
   </g>
   <g id="patch_32">
    <path clip-path="url(#p1b88afeb42)" d="M 185.51375 187.688348 
L 199.46375 187.688348 
L 199.46375 185.139422 
L 185.51375 185.139422 
z
" style="fill:#7a68a6;"/>
   </g>
   <g id="patch_33">
    <path clip-path="url(#p1b88afeb42)" d="M 213.41375 155.843007 
L 227.36375 155.843007 
L 227.36375 149.686628 
L 213.41375 149.686628 
z
" style="fill:#7a68a6;"/>
   </g>
   <g id="patch_34">
    <path clip-path="url(#p1b88afeb42)" d="M 241.31375 166.720457 
L 255.26375 166.720457 
L 255.26375 163.855744 
L 241.31375 163.855744 
z
" style="fill:#7a68a6;"/>
   </g>
   <g id="patch_35">
    <path clip-path="url(#p1b88afeb42)" d="M 269.21375 221.506131 
L 283.16375 221.506131 
L 283.16375 215.66849 
L 269.21375 215.66849 
z
" style="fill:#7a68a6;"/>
   </g>
   <g id="patch_36">
    <path clip-path="url(#p1b88afeb42)" d="M 297.11375 234.407178 
L 311.06375 234.407178 
L 311.06375 228.004859 
L 297.11375 228.004859 
z
" style="fill:#7a68a6;"/>
   </g>
   <g id="patch_37">
    <path clip-path="url(#p1b88afeb42)" d="M 325.01375 227.989118 
L 338.96375 227.989118 
L 338.96375 226.74466 
L 325.01375 226.74466 
z
" style="fill:#7a68a6;"/>
   </g>
   <g id="patch_38">
    <path clip-path="url(#p1b88afeb42)" d="M 352.91375 229.595601 
L 366.86375 229.595601 
L 366.86375 226.340334 
L 352.91375 226.340334 
z
" style="fill:#7a68a6;"/>
   </g>
   <g id="patch_39">
    <path clip-path="url(#p1b88afeb42)" d="M 46.01375 160.367326 
L 59.96375 160.367326 
L 59.96375 137.01283 
L 46.01375 137.01283 
z
" style="fill:#467821;"/>
   </g>
   <g id="patch_40">
    <path clip-path="url(#p1b88afeb42)" d="M 73.91375 190.956403 
L 87.86375 190.956403 
L 87.86375 121.724193 
L 73.91375 121.724193 
z
" style="fill:#467821;"/>
   </g>
   <g id="patch_41">
    <path clip-path="url(#p1b88afeb42)" d="M 101.81375 217.46779 
L 115.76375 217.46779 
L 115.76375 34.496036 
L 101.81375 34.496036 
z
" style="fill:#467821;"/>
   </g>
   <g id="patch_42">
    <path clip-path="url(#p1b88afeb42)" d="M 129.71375 143.107232 
L 143.66375 143.107232 
L 143.66375 85.35355 
L 129.71375 85.35355 
z
" style="fill:#467821;"/>
   </g>
   <g id="patch_43">
    <path clip-path="url(#p1b88afeb42)" d="M 157.61375 102.040111 
L 171.56375 102.040111 
L 171.56375 67.814068 
L 157.61375 67.814068 
z
" style="fill:#467821;"/>
   </g>
   <g id="patch_44">
    <path clip-path="url(#p1b88afeb42)" d="M 185.51375 185.139422 
L 199.46375 185.139422 
L 199.46375 181.956954 
L 185.51375 181.956954 
z
" style="fill:#467821;"/>
   </g>
   <g id="patch_45">
    <path clip-path="url(#p1b88afeb42)" d="M 213.41375 241.58175 
L 227.36375 241.58175 
L 227.36375 241.58175 
L 213.41375 241.58175 
z
" style="fill:#467821;"/>
   </g>
   <g id="patch_46">
    <path clip-path="url(#p1b88afeb42)" d="M 241.31375 163.855744 
L 255.26375 163.855744 
L 255.26375 153.30687 
L 241.31375 153.30687 
z
" style="fill:#467821;"/>
   </g>
   <g id="patch_47">
    <path clip-path="url(#p1b88afeb42)" d="M 269.21375 215.66849 
L 283.16375 215.66849 
L 283.16375 207.961703 
L 269.21375 207.961703 
z
" style="fill:#467821;"/>
   </g>
   <g id="patch_48">
    <path clip-path="url(#p1b88afeb42)" d="M 297.11375 228.004859 
L 311.06375 228.004859 
L 311.06375 209.005474 
L 297.11375 209.005474 
z
" style="fill:#467821;"/>
   </g>
   <g id="patch_49">
    <path clip-path="url(#p1b88afeb42)" d="M 325.01375 241.58175 
L 338.96375 241.58175 
L 338.96375 241.58175 
L 325.01375 241.58175 
z
" style="fill:#467821;"/>
   </g>
   <g id="patch_50">
    <path clip-path="url(#p1b88afeb42)" d="M 352.91375 226.340334 
L 366.86375 226.340334 
L 366.86375 199.908632 
L 352.91375 199.908632 
z
" style="fill:#467821;"/>
   </g>
   <g id="matplotlib.axis_1">
    <g id="xtick_1">
     <g id="text_1">
      <!-- Jan -->
      <g transform="translate(45.280938 252.680188)scale(0.1 -0.1)">
       <defs>
        <path d="M 628 4666 
L 1259 4666 
L 1259 325 
Q 1259 -519 939 -900 
Q 619 -1281 -91 -1281 
L -331 -1281 
L -331 -750 
L -134 -750 
Q 284 -750 456 -515 
Q 628 -281 628 325 
L 628 4666 
z
" id="DejaVuSans-4a" transform="scale(0.015625)"/>
        <path d="M 2194 1759 
Q 1497 1759 1228 1600 
Q 959 1441 959 1056 
Q 959 750 1161 570 
Q 1363 391 1709 391 
Q 2188 391 2477 730 
Q 2766 1069 2766 1631 
L 2766 1759 
L 2194 1759 
z
M 3341 1997 
L 3341 0 
L 2766 0 
L 2766 531 
Q 2569 213 2275 61 
Q 1981 -91 1556 -91 
Q 1019 -91 701 211 
Q 384 513 384 1019 
Q 384 1609 779 1909 
Q 1175 2209 1959 2209 
L 2766 2209 
L 2766 2266 
Q 2766 2663 2505 2880 
Q 2244 3097 1772 3097 
Q 1472 3097 1187 3025 
Q 903 2953 641 2809 
L 641 3341 
Q 956 3463 1253 3523 
Q 1550 3584 1831 3584 
Q 2591 3584 2966 3190 
Q 3341 2797 3341 1997 
z
" id="DejaVuSans-61" transform="scale(0.015625)"/>
        <path d="M 3513 2113 
L 3513 0 
L 2938 0 
L 2938 2094 
Q 2938 2591 2744 2837 
Q 2550 3084 2163 3084 
Q 1697 3084 1428 2787 
Q 1159 2491 1159 1978 
L 1159 0 
L 581 0 
L 581 3500 
L 1159 3500 
L 1159 2956 
Q 1366 3272 1645 3428 
Q 1925 3584 2291 3584 
Q 2894 3584 3203 3211 
Q 3513 2838 3513 2113 
z
" id="DejaVuSans-6e" transform="scale(0.015625)"/>
       </defs>
       <use xlink:href="#DejaVuSans-4a"/>
       <use x="29.492188" xlink:href="#DejaVuSans-61"/>
       <use x="90.771484" xlink:href="#DejaVuSans-6e"/>
      </g>
     </g>
    </g>
    <g id="xtick_2">
     <g id="text_2">
      <!-- Feb -->
      <g transform="translate(72.037188 252.680188)scale(0.1 -0.1)">
       <defs>
        <path d="M 628 4666 
L 3309 4666 
L 3309 4134 
L 1259 4134 
L 1259 2759 
L 3109 2759 
L 3109 2228 
L 1259 2228 
L 1259 0 
L 628 0 
L 628 4666 
z
" id="DejaVuSans-46" transform="scale(0.015625)"/>
        <path d="M 3597 1894 
L 3597 1613 
L 953 1613 
Q 991 1019 1311 708 
Q 1631 397 2203 397 
Q 2534 397 2845 478 
Q 3156 559 3463 722 
L 3463 178 
Q 3153 47 2828 -22 
Q 2503 -91 2169 -91 
Q 1331 -91 842 396 
Q 353 884 353 1716 
Q 353 2575 817 3079 
Q 1281 3584 2069 3584 
Q 2775 3584 3186 3129 
Q 3597 2675 3597 1894 
z
M 3022 2063 
Q 3016 2534 2758 2815 
Q 2500 3097 2075 3097 
Q 1594 3097 1305 2825 
Q 1016 2553 972 2059 
L 3022 2063 
z
" id="DejaVuSans-65" transform="scale(0.015625)"/>
        <path d="M 3116 1747 
Q 3116 2381 2855 2742 
Q 2594 3103 2138 3103 
Q 1681 3103 1420 2742 
Q 1159 2381 1159 1747 
Q 1159 1113 1420 752 
Q 1681 391 2138 391 
Q 2594 391 2855 752 
Q 3116 1113 3116 1747 
z
M 1159 2969 
Q 1341 3281 1617 3432 
Q 1894 3584 2278 3584 
Q 2916 3584 3314 3078 
Q 3713 2572 3713 1747 
Q 3713 922 3314 415 
Q 2916 -91 2278 -91 
Q 1894 -91 1617 61 
Q 1341 213 1159 525 
L 1159 0 
L 581 0 
L 581 4863 
L 1159 4863 
L 1159 2969 
z
" id="DejaVuSans-62" transform="scale(0.015625)"/>
       </defs>
       <use xlink:href="#DejaVuSans-46"/>
       <use x="52.019531" xlink:href="#DejaVuSans-65"/>
       <use x="113.542969" xlink:href="#DejaVuSans-62"/>
      </g>
     </g>
    </g>
    <g id="xtick_3">
     <g id="text_3">
      <!-- Mar -->
      <g transform="translate(99.355156 252.680188)scale(0.1 -0.1)">
       <defs>
        <path d="M 628 4666 
L 1569 4666 
L 2759 1491 
L 3956 4666 
L 4897 4666 
L 4897 0 
L 4281 0 
L 4281 4097 
L 3078 897 
L 2444 897 
L 1241 4097 
L 1241 0 
L 628 0 
L 628 4666 
z
" id="DejaVuSans-4d" transform="scale(0.015625)"/>
        <path d="M 2631 2963 
Q 2534 3019 2420 3045 
Q 2306 3072 2169 3072 
Q 1681 3072 1420 2755 
Q 1159 2438 1159 1844 
L 1159 0 
L 581 0 
L 581 3500 
L 1159 3500 
L 1159 2956 
Q 1341 3275 1631 3429 
Q 1922 3584 2338 3584 
Q 2397 3584 2469 3576 
Q 2541 3569 2628 3553 
L 2631 2963 
z
" id="DejaVuSans-72" transform="scale(0.015625)"/>
       </defs>
       <use xlink:href="#DejaVuSans-4d"/>
       <use x="86.279297" xlink:href="#DejaVuSans-61"/>
       <use x="147.558594" xlink:href="#DejaVuSans-72"/>
      </g>
     </g>
    </g>
    <g id="xtick_4">
     <g id="text_4">
      <!-- Apr -->
      <g transform="translate(128.03875 252.680188)scale(0.1 -0.1)">
       <defs>
        <path d="M 2188 4044 
L 1331 1722 
L 3047 1722 
L 2188 4044 
z
M 1831 4666 
L 2547 4666 
L 4325 0 
L 3669 0 
L 3244 1197 
L 1141 1197 
L 716 0 
L 50 0 
L 1831 4666 
z
" id="DejaVuSans-41" transform="scale(0.015625)"/>
        <path d="M 1159 525 
L 1159 -1331 
L 581 -1331 
L 581 3500 
L 1159 3500 
L 1159 2969 
Q 1341 3281 1617 3432 
Q 1894 3584 2278 3584 
Q 2916 3584 3314 3078 
Q 3713 2572 3713 1747 
Q 3713 922 3314 415 
Q 2916 -91 2278 -91 
Q 1894 -91 1617 61 
Q 1341 213 1159 525 
z
M 3116 1747 
Q 3116 2381 2855 2742 
Q 2594 3103 2138 3103 
Q 1681 3103 1420 2742 
Q 1159 2381 1159 1747 
Q 1159 1113 1420 752 
Q 1681 391 2138 391 
Q 2594 391 2855 752 
Q 3116 1113 3116 1747 
z
" id="DejaVuSans-70" transform="scale(0.015625)"/>
       </defs>
       <use xlink:href="#DejaVuSans-41"/>
       <use x="68.408203" xlink:href="#DejaVuSans-70"/>
       <use x="131.884766" xlink:href="#DejaVuSans-72"/>
      </g>
     </g>
    </g>
    <g id="xtick_5">
     <g id="text_5">
      <!-- May -->
      <g transform="translate(154.25125 252.680188)scale(0.1 -0.1)">
       <defs>
        <path d="M 2059 -325 
Q 1816 -950 1584 -1140 
Q 1353 -1331 966 -1331 
L 506 -1331 
L 506 -850 
L 844 -850 
Q 1081 -850 1212 -737 
Q 1344 -625 1503 -206 
L 1606 56 
L 191 3500 
L 800 3500 
L 1894 763 
L 2988 3500 
L 3597 3500 
L 2059 -325 
z
" id="DejaVuSans-79" transform="scale(0.015625)"/>
       </defs>
       <use xlink:href="#DejaVuSans-4d"/>
       <use x="86.279297" xlink:href="#DejaVuSans-61"/>
       <use x="147.558594" xlink:href="#DejaVuSans-79"/>
      </g>
     </g>
    </g>
    <g id="xtick_6">
     <g id="text_6">
      <!-- Jun -->
      <g transform="translate(184.67625 252.680188)scale(0.1 -0.1)">
       <defs>
        <path d="M 544 1381 
L 544 3500 
L 1119 3500 
L 1119 1403 
Q 1119 906 1312 657 
Q 1506 409 1894 409 
Q 2359 409 2629 706 
Q 2900 1003 2900 1516 
L 2900 3500 
L 3475 3500 
L 3475 0 
L 2900 0 
L 2900 538 
Q 2691 219 2414 64 
Q 2138 -91 1772 -91 
Q 1169 -91 856 284 
Q 544 659 544 1381 
z
M 1991 3584 
L 1991 3584 
z
" id="DejaVuSans-75" transform="scale(0.015625)"/>
       </defs>
       <use xlink:href="#DejaVuSans-4a"/>
       <use x="29.492188" xlink:href="#DejaVuSans-75"/>
       <use x="92.871094" xlink:href="#DejaVuSans-6e"/>
      </g>
     </g>
    </g>
    <g id="xtick_7">
     <g id="text_7">
      <!-- Jul -->
      <g transform="translate(214.355937 252.680188)scale(0.1 -0.1)">
       <defs>
        <path d="M 603 4863 
L 1178 4863 
L 1178 0 
L 603 0 
L 603 4863 
z
" id="DejaVuSans-6c" transform="scale(0.015625)"/>
       </defs>
       <use xlink:href="#DejaVuSans-4a"/>
       <use x="29.492188" xlink:href="#DejaVuSans-75"/>
       <use x="92.871094" xlink:href="#DejaVuSans-6c"/>
      </g>
     </g>
    </g>
    <g id="xtick_8">
     <g id="text_8">
      <!-- Aug -->
      <g transform="translate(238.525469 252.680188)scale(0.1 -0.1)">
       <defs>
        <path d="M 2906 1791 
Q 2906 2416 2648 2759 
Q 2391 3103 1925 3103 
Q 1463 3103 1205 2759 
Q 947 2416 947 1791 
Q 947 1169 1205 825 
Q 1463 481 1925 481 
Q 2391 481 2648 825 
Q 2906 1169 2906 1791 
z
M 3481 434 
Q 3481 -459 3084 -895 
Q 2688 -1331 1869 -1331 
Q 1566 -1331 1297 -1286 
Q 1028 -1241 775 -1147 
L 775 -588 
Q 1028 -725 1275 -790 
Q 1522 -856 1778 -856 
Q 2344 -856 2625 -561 
Q 2906 -266 2906 331 
L 2906 616 
Q 2728 306 2450 153 
Q 2172 0 1784 0 
Q 1141 0 747 490 
Q 353 981 353 1791 
Q 353 2603 747 3093 
Q 1141 3584 1784 3584 
Q 2172 3584 2450 3431 
Q 2728 3278 2906 2969 
L 2906 3500 
L 3481 3500 
L 3481 434 
z
" id="DejaVuSans-67" transform="scale(0.015625)"/>
       </defs>
       <use xlink:href="#DejaVuSans-41"/>
       <use x="68.408203" xlink:href="#DejaVuSans-75"/>
       <use x="131.787109" xlink:href="#DejaVuSans-67"/>
      </g>
     </g>
    </g>
    <g id="xtick_9">
     <g id="text_9">
      <!-- Sep -->
      <g transform="translate(266.76375 252.680188)scale(0.1 -0.1)">
       <defs>
        <path d="M 3425 4513 
L 3425 3897 
Q 3066 4069 2747 4153 
Q 2428 4238 2131 4238 
Q 1616 4238 1336 4038 
Q 1056 3838 1056 3469 
Q 1056 3159 1242 3001 
Q 1428 2844 1947 2747 
L 2328 2669 
Q 3034 2534 3370 2195 
Q 3706 1856 3706 1288 
Q 3706 609 3251 259 
Q 2797 -91 1919 -91 
Q 1588 -91 1214 -16 
Q 841 59 441 206 
L 441 856 
Q 825 641 1194 531 
Q 1563 422 1919 422 
Q 2459 422 2753 634 
Q 3047 847 3047 1241 
Q 3047 1584 2836 1778 
Q 2625 1972 2144 2069 
L 1759 2144 
Q 1053 2284 737 2584 
Q 422 2884 422 3419 
Q 422 4038 858 4394 
Q 1294 4750 2059 4750 
Q 2388 4750 2728 4690 
Q 3069 4631 3425 4513 
z
" id="DejaVuSans-53" transform="scale(0.015625)"/>
       </defs>
       <use xlink:href="#DejaVuSans-53"/>
       <use x="63.476562" xlink:href="#DejaVuSans-65"/>
       <use x="125" xlink:href="#DejaVuSans-70"/>
      </g>
     </g>
    </g>
    <g id="xtick_10">
     <g id="text_10">
      <!-- Oct -->
      <g transform="translate(295.443438 252.680188)scale(0.1 -0.1)">
       <defs>
        <path d="M 2522 4238 
Q 1834 4238 1429 3725 
Q 1025 3213 1025 2328 
Q 1025 1447 1429 934 
Q 1834 422 2522 422 
Q 3209 422 3611 934 
Q 4013 1447 4013 2328 
Q 4013 3213 3611 3725 
Q 3209 4238 2522 4238 
z
M 2522 4750 
Q 3503 4750 4090 4092 
Q 4678 3434 4678 2328 
Q 4678 1225 4090 567 
Q 3503 -91 2522 -91 
Q 1538 -91 948 565 
Q 359 1222 359 2328 
Q 359 3434 948 4092 
Q 1538 4750 2522 4750 
z
" id="DejaVuSans-4f" transform="scale(0.015625)"/>
        <path d="M 3122 3366 
L 3122 2828 
Q 2878 2963 2633 3030 
Q 2388 3097 2138 3097 
Q 1578 3097 1268 2742 
Q 959 2388 959 1747 
Q 959 1106 1268 751 
Q 1578 397 2138 397 
Q 2388 397 2633 464 
Q 2878 531 3122 666 
L 3122 134 
Q 2881 22 2623 -34 
Q 2366 -91 2075 -91 
Q 1284 -91 818 406 
Q 353 903 353 1747 
Q 353 2603 823 3093 
Q 1294 3584 2113 3584 
Q 2378 3584 2631 3529 
Q 2884 3475 3122 3366 
z
" id="DejaVuSans-63" transform="scale(0.015625)"/>
        <path d="M 1172 4494 
L 1172 3500 
L 2356 3500 
L 2356 3053 
L 1172 3053 
L 1172 1153 
Q 1172 725 1289 603 
Q 1406 481 1766 481 
L 2356 481 
L 2356 0 
L 1766 0 
Q 1100 0 847 248 
Q 594 497 594 1153 
L 594 3053 
L 172 3053 
L 172 3500 
L 594 3500 
L 594 4494 
L 1172 4494 
z
" id="DejaVuSans-74" transform="scale(0.015625)"/>
       </defs>
       <use xlink:href="#DejaVuSans-4f"/>
       <use x="78.710938" xlink:href="#DejaVuSans-63"/>
       <use x="133.691406" xlink:href="#DejaVuSans-74"/>
      </g>
     </g>
    </g>
    <g id="xtick_11">
     <g id="text_11">
      <!-- Nov -->
      <g transform="translate(322.229375 252.680188)scale(0.1 -0.1)">
       <defs>
        <path d="M 628 4666 
L 1478 4666 
L 3547 763 
L 3547 4666 
L 4159 4666 
L 4159 0 
L 3309 0 
L 1241 3903 
L 1241 0 
L 628 0 
L 628 4666 
z
" id="DejaVuSans-4e" transform="scale(0.015625)"/>
        <path d="M 1959 3097 
Q 1497 3097 1228 2736 
Q 959 2375 959 1747 
Q 959 1119 1226 758 
Q 1494 397 1959 397 
Q 2419 397 2687 759 
Q 2956 1122 2956 1747 
Q 2956 2369 2687 2733 
Q 2419 3097 1959 3097 
z
M 1959 3584 
Q 2709 3584 3137 3096 
Q 3566 2609 3566 1747 
Q 3566 888 3137 398 
Q 2709 -91 1959 -91 
Q 1206 -91 779 398 
Q 353 888 353 1747 
Q 353 2609 779 3096 
Q 1206 3584 1959 3584 
z
" id="DejaVuSans-6f" transform="scale(0.015625)"/>
        <path d="M 191 3500 
L 800 3500 
L 1894 563 
L 2988 3500 
L 3597 3500 
L 2284 0 
L 1503 0 
L 191 3500 
z
" id="DejaVuSans-76" transform="scale(0.015625)"/>
       </defs>
       <use xlink:href="#DejaVuSans-4e"/>
       <use x="74.804688" xlink:href="#DejaVuSans-6f"/>
       <use x="135.986328" xlink:href="#DejaVuSans-76"/>
      </g>
     </g>
    </g>
    <g id="xtick_12">
     <g id="text_12">
      <!-- Dec -->
      <g transform="translate(350.212969 252.680188)scale(0.1 -0.1)">
       <defs>
        <path d="M 1259 4147 
L 1259 519 
L 2022 519 
Q 2988 519 3436 956 
Q 3884 1394 3884 2338 
Q 3884 3275 3436 3711 
Q 2988 4147 2022 4147 
L 1259 4147 
z
M 628 4666 
L 1925 4666 
Q 3281 4666 3915 4102 
Q 4550 3538 4550 2338 
Q 4550 1131 3912 565 
Q 3275 0 1925 0 
L 628 0 
L 628 4666 
z
" id="DejaVuSans-44" transform="scale(0.015625)"/>
       </defs>
       <use xlink:href="#DejaVuSans-44"/>
       <use x="77.001953" xlink:href="#DejaVuSans-65"/>
       <use x="138.525391" xlink:href="#DejaVuSans-63"/>
      </g>
     </g>
    </g>
   </g>
   <g id="matplotlib.axis_2">
    <g id="ytick_1">
     <g id="line2d_1">
      <path clip-path="url(#p1b88afeb42)" d="M 39.03875 241.58175 
L 373.83875 241.58175 
" style="fill:none;stroke:#b2b2b2;stroke-dasharray:1.85,0.8;stroke-dashoffset:0;stroke-width:0.5;"/>
     </g>
     <g id="line2d_2">
      <defs>
       <path d="M 0 0 
L 3.5 0 
" id="m131e75a213" style="stroke:#000000;stroke-width:0.8;"/>
      </defs>
      <g>
       <use style="stroke:#000000;stroke-width:0.8;" x="39.03875" xlink:href="#m131e75a213" y="241.58175"/>
      </g>
     </g>
     <g id="text_13">
      <!-- 0 -->
      <g transform="translate(29.17625 245.380969)scale(0.1 -0.1)">
       <defs>
        <path d="M 2034 4250 
Q 1547 4250 1301 3770 
Q 1056 3291 1056 2328 
Q 1056 1369 1301 889 
Q 1547 409 2034 409 
Q 2525 409 2770 889 
Q 3016 1369 3016 2328 
Q 3016 3291 2770 3770 
Q 2525 4250 2034 4250 
z
M 2034 4750 
Q 2819 4750 3233 4129 
Q 3647 3509 3647 2328 
Q 3647 1150 3233 529 
Q 2819 -91 2034 -91 
Q 1250 -91 836 529 
Q 422 1150 422 2328 
Q 422 3509 836 4129 
Q 1250 4750 2034 4750 
z
" id="DejaVuSans-30" transform="scale(0.015625)"/>
       </defs>
       <use xlink:href="#DejaVuSans-30"/>
      </g>
     </g>
    </g>
    <g id="ytick_2">
     <g id="line2d_3">
      <path clip-path="url(#p1b88afeb42)" d="M 39.03875 206.166339 
L 373.83875 206.166339 
" style="fill:none;stroke:#b2b2b2;stroke-dasharray:1.85,0.8;stroke-dashoffset:0;stroke-width:0.5;"/>
     </g>
     <g id="line2d_4">
      <g>
       <use style="stroke:#000000;stroke-width:0.8;" x="39.03875" xlink:href="#m131e75a213" y="206.166339"/>
      </g>
     </g>
     <g id="text_14">
      <!-- 10 -->
      <g transform="translate(22.81375 209.965558)scale(0.1 -0.1)">
       <defs>
        <path d="M 794 531 
L 1825 531 
L 1825 4091 
L 703 3866 
L 703 4441 
L 1819 4666 
L 2450 4666 
L 2450 531 
L 3481 531 
L 3481 0 
L 794 0 
L 794 531 
z
" id="DejaVuSans-31" transform="scale(0.015625)"/>
       </defs>
       <use xlink:href="#DejaVuSans-31"/>
       <use x="63.623047" xlink:href="#DejaVuSans-30"/>
      </g>
     </g>
    </g>
    <g id="ytick_3">
     <g id="line2d_5">
      <path clip-path="url(#p1b88afeb42)" d="M 39.03875 170.750928 
L 373.83875 170.750928 
" style="fill:none;stroke:#b2b2b2;stroke-dasharray:1.85,0.8;stroke-dashoffset:0;stroke-width:0.5;"/>
     </g>
     <g id="line2d_6">
      <g>
       <use style="stroke:#000000;stroke-width:0.8;" x="39.03875" xlink:href="#m131e75a213" y="170.750928"/>
      </g>
     </g>
     <g id="text_15">
      <!-- 20 -->
      <g transform="translate(22.81375 174.550146)scale(0.1 -0.1)">
       <defs>
        <path d="M 1228 531 
L 3431 531 
L 3431 0 
L 469 0 
L 469 531 
Q 828 903 1448 1529 
Q 2069 2156 2228 2338 
Q 2531 2678 2651 2914 
Q 2772 3150 2772 3378 
Q 2772 3750 2511 3984 
Q 2250 4219 1831 4219 
Q 1534 4219 1204 4116 
Q 875 4013 500 3803 
L 500 4441 
Q 881 4594 1212 4672 
Q 1544 4750 1819 4750 
Q 2544 4750 2975 4387 
Q 3406 4025 3406 3419 
Q 3406 3131 3298 2873 
Q 3191 2616 2906 2266 
Q 2828 2175 2409 1742 
Q 1991 1309 1228 531 
z
" id="DejaVuSans-32" transform="scale(0.015625)"/>
       </defs>
       <use xlink:href="#DejaVuSans-32"/>
       <use x="63.623047" xlink:href="#DejaVuSans-30"/>
      </g>
     </g>
    </g>
    <g id="ytick_4">
     <g id="line2d_7">
      <path clip-path="url(#p1b88afeb42)" d="M 39.03875 135.335516 
L 373.83875 135.335516 
" style="fill:none;stroke:#b2b2b2;stroke-dasharray:1.85,0.8;stroke-dashoffset:0;stroke-width:0.5;"/>
     </g>
     <g id="line2d_8">
      <g>
       <use style="stroke:#000000;stroke-width:0.8;" x="39.03875" xlink:href="#m131e75a213" y="135.335516"/>
      </g>
     </g>
     <g id="text_16">
      <!-- 30 -->
      <g transform="translate(22.81375 139.134735)scale(0.1 -0.1)">
       <defs>
        <path d="M 2597 2516 
Q 3050 2419 3304 2112 
Q 3559 1806 3559 1356 
Q 3559 666 3084 287 
Q 2609 -91 1734 -91 
Q 1441 -91 1130 -33 
Q 819 25 488 141 
L 488 750 
Q 750 597 1062 519 
Q 1375 441 1716 441 
Q 2309 441 2620 675 
Q 2931 909 2931 1356 
Q 2931 1769 2642 2001 
Q 2353 2234 1838 2234 
L 1294 2234 
L 1294 2753 
L 1863 2753 
Q 2328 2753 2575 2939 
Q 2822 3125 2822 3475 
Q 2822 3834 2567 4026 
Q 2313 4219 1838 4219 
Q 1578 4219 1281 4162 
Q 984 4106 628 3988 
L 628 4550 
Q 988 4650 1302 4700 
Q 1616 4750 1894 4750 
Q 2613 4750 3031 4423 
Q 3450 4097 3450 3541 
Q 3450 3153 3228 2886 
Q 3006 2619 2597 2516 
z
" id="DejaVuSans-33" transform="scale(0.015625)"/>
       </defs>
       <use xlink:href="#DejaVuSans-33"/>
       <use x="63.623047" xlink:href="#DejaVuSans-30"/>
      </g>
     </g>
    </g>
    <g id="ytick_5">
     <g id="line2d_9">
      <path clip-path="url(#p1b88afeb42)" d="M 39.03875 99.920105 
L 373.83875 99.920105 
" style="fill:none;stroke:#b2b2b2;stroke-dasharray:1.85,0.8;stroke-dashoffset:0;stroke-width:0.5;"/>
     </g>
     <g id="line2d_10">
      <g>
       <use style="stroke:#000000;stroke-width:0.8;" x="39.03875" xlink:href="#m131e75a213" y="99.920105"/>
      </g>
     </g>
     <g id="text_17">
      <!-- 40 -->
      <g transform="translate(22.81375 103.719324)scale(0.1 -0.1)">
       <defs>
        <path d="M 2419 4116 
L 825 1625 
L 2419 1625 
L 2419 4116 
z
M 2253 4666 
L 3047 4666 
L 3047 1625 
L 3713 1625 
L 3713 1100 
L 3047 1100 
L 3047 0 
L 2419 0 
L 2419 1100 
L 313 1100 
L 313 1709 
L 2253 4666 
z
" id="DejaVuSans-34" transform="scale(0.015625)"/>
       </defs>
       <use xlink:href="#DejaVuSans-34"/>
       <use x="63.623047" xlink:href="#DejaVuSans-30"/>
      </g>
     </g>
    </g>
    <g id="ytick_6">
     <g id="line2d_11">
      <path clip-path="url(#p1b88afeb42)" d="M 39.03875 64.504694 
L 373.83875 64.504694 
" style="fill:none;stroke:#b2b2b2;stroke-dasharray:1.85,0.8;stroke-dashoffset:0;stroke-width:0.5;"/>
     </g>
     <g id="line2d_12">
      <g>
       <use style="stroke:#000000;stroke-width:0.8;" x="39.03875" xlink:href="#m131e75a213" y="64.504694"/>
      </g>
     </g>
     <g id="text_18">
      <!-- 50 -->
      <g transform="translate(22.81375 68.303913)scale(0.1 -0.1)">
       <defs>
        <path d="M 691 4666 
L 3169 4666 
L 3169 4134 
L 1269 4134 
L 1269 2991 
Q 1406 3038 1543 3061 
Q 1681 3084 1819 3084 
Q 2600 3084 3056 2656 
Q 3513 2228 3513 1497 
Q 3513 744 3044 326 
Q 2575 -91 1722 -91 
Q 1428 -91 1123 -41 
Q 819 9 494 109 
L 494 744 
Q 775 591 1075 516 
Q 1375 441 1709 441 
Q 2250 441 2565 725 
Q 2881 1009 2881 1497 
Q 2881 1984 2565 2268 
Q 2250 2553 1709 2553 
Q 1456 2553 1204 2497 
Q 953 2441 691 2322 
L 691 4666 
z
" id="DejaVuSans-35" transform="scale(0.015625)"/>
       </defs>
       <use xlink:href="#DejaVuSans-35"/>
       <use x="63.623047" xlink:href="#DejaVuSans-30"/>
      </g>
     </g>
    </g>
    <g id="ytick_7">
     <g id="line2d_13">
      <path clip-path="url(#p1b88afeb42)" d="M 39.03875 29.089283 
L 373.83875 29.089283 
" style="fill:none;stroke:#b2b2b2;stroke-dasharray:1.85,0.8;stroke-dashoffset:0;stroke-width:0.5;"/>
     </g>
     <g id="line2d_14">
      <g>
       <use style="stroke:#000000;stroke-width:0.8;" x="39.03875" xlink:href="#m131e75a213" y="29.089283"/>
      </g>
     </g>
     <g id="text_19">
      <!-- 60 -->
      <g transform="translate(22.81375 32.888502)scale(0.1 -0.1)">
       <defs>
        <path d="M 2113 2584 
Q 1688 2584 1439 2293 
Q 1191 2003 1191 1497 
Q 1191 994 1439 701 
Q 1688 409 2113 409 
Q 2538 409 2786 701 
Q 3034 994 3034 1497 
Q 3034 2003 2786 2293 
Q 2538 2584 2113 2584 
z
M 3366 4563 
L 3366 3988 
Q 3128 4100 2886 4159 
Q 2644 4219 2406 4219 
Q 1781 4219 1451 3797 
Q 1122 3375 1075 2522 
Q 1259 2794 1537 2939 
Q 1816 3084 2150 3084 
Q 2853 3084 3261 2657 
Q 3669 2231 3669 1497 
Q 3669 778 3244 343 
Q 2819 -91 2113 -91 
Q 1303 -91 875 529 
Q 447 1150 447 2328 
Q 447 3434 972 4092 
Q 1497 4750 2381 4750 
Q 2619 4750 2861 4703 
Q 3103 4656 3366 4563 
z
" id="DejaVuSans-36" transform="scale(0.015625)"/>
       </defs>
       <use xlink:href="#DejaVuSans-36"/>
       <use x="63.623047" xlink:href="#DejaVuSans-30"/>
      </g>
     </g>
    </g>
    <g id="text_20">
     <!-- Time (h) -->
     <g transform="translate(16.318125 157.933312)rotate(-90)scale(0.12 -0.12)">
      <defs>
       <path d="M -19 4666 
L 3928 4666 
L 3928 4134 
L 2272 4134 
L 2272 0 
L 1638 0 
L 1638 4134 
L -19 4134 
L -19 4666 
z
" id="DejaVuSans-54" transform="scale(0.015625)"/>
       <path d="M 603 3500 
L 1178 3500 
L 1178 0 
L 603 0 
L 603 3500 
z
M 603 4863 
L 1178 4863 
L 1178 4134 
L 603 4134 
L 603 4863 
z
" id="DejaVuSans-69" transform="scale(0.015625)"/>
       <path d="M 3328 2828 
Q 3544 3216 3844 3400 
Q 4144 3584 4550 3584 
Q 5097 3584 5394 3201 
Q 5691 2819 5691 2113 
L 5691 0 
L 5113 0 
L 5113 2094 
Q 5113 2597 4934 2840 
Q 4756 3084 4391 3084 
Q 3944 3084 3684 2787 
Q 3425 2491 3425 1978 
L 3425 0 
L 2847 0 
L 2847 2094 
Q 2847 2600 2669 2842 
Q 2491 3084 2119 3084 
Q 1678 3084 1418 2786 
Q 1159 2488 1159 1978 
L 1159 0 
L 581 0 
L 581 3500 
L 1159 3500 
L 1159 2956 
Q 1356 3278 1631 3431 
Q 1906 3584 2284 3584 
Q 2666 3584 2933 3390 
Q 3200 3197 3328 2828 
z
" id="DejaVuSans-6d" transform="scale(0.015625)"/>
       <path id="DejaVuSans-20" transform="scale(0.015625)"/>
       <path d="M 1984 4856 
Q 1566 4138 1362 3434 
Q 1159 2731 1159 2009 
Q 1159 1288 1364 580 
Q 1569 -128 1984 -844 
L 1484 -844 
Q 1016 -109 783 600 
Q 550 1309 550 2009 
Q 550 2706 781 3412 
Q 1013 4119 1484 4856 
L 1984 4856 
z
" id="DejaVuSans-28" transform="scale(0.015625)"/>
       <path d="M 3513 2113 
L 3513 0 
L 2938 0 
L 2938 2094 
Q 2938 2591 2744 2837 
Q 2550 3084 2163 3084 
Q 1697 3084 1428 2787 
Q 1159 2491 1159 1978 
L 1159 0 
L 581 0 
L 581 4863 
L 1159 4863 
L 1159 2956 
Q 1366 3272 1645 3428 
Q 1925 3584 2291 3584 
Q 2894 3584 3203 3211 
Q 3513 2838 3513 2113 
z
" id="DejaVuSans-68" transform="scale(0.015625)"/>
       <path d="M 513 4856 
L 1013 4856 
Q 1481 4119 1714 3412 
Q 1947 2706 1947 2009 
Q 1947 1309 1714 600 
Q 1481 -109 1013 -844 
L 513 -844 
Q 928 -128 1133 580 
Q 1338 1288 1338 2009 
Q 1338 2731 1133 3434 
Q 928 4138 513 4856 
z
" id="DejaVuSans-29" transform="scale(0.015625)"/>
      </defs>
      <use xlink:href="#DejaVuSans-54"/>
      <use x="57.958984" xlink:href="#DejaVuSans-69"/>
      <use x="85.742188" xlink:href="#DejaVuSans-6d"/>
      <use x="183.154297" xlink:href="#DejaVuSans-65"/>
      <use x="244.677734" xlink:href="#DejaVuSans-20"/>
      <use x="276.464844" xlink:href="#DejaVuSans-28"/>
      <use x="315.478516" xlink:href="#DejaVuSans-68"/>
      <use x="378.857422" xlink:href="#DejaVuSans-29"/>
     </g>
    </g>
   </g>
   <g id="patch_51">
    <path d="M 39.03875 241.58175 
L 39.03875 24.14175 
" style="fill:none;stroke:#bcbcbc;stroke-linecap:square;stroke-linejoin:miter;stroke-width:0.8;"/>
   </g>
   <g id="patch_52">
    <path d="M 373.83875 241.58175 
L 373.83875 24.14175 
" style="fill:none;stroke:#bcbcbc;stroke-linecap:square;stroke-linejoin:miter;stroke-width:0.8;"/>
   </g>
   <g id="patch_53">
    <path d="M 39.03875 241.58175 
L 373.83875 241.58175 
" style="fill:none;stroke:#bcbcbc;stroke-linecap:square;stroke-linejoin:miter;stroke-width:0.8;"/>
   </g>
   <g id="patch_54">
    <path d="M 39.03875 24.14175 
L 373.83875 24.14175 
" style="fill:none;stroke:#bcbcbc;stroke-linecap:square;stroke-linejoin:miter;stroke-width:0.8;"/>
   </g>
   <g id="text_21">
    <!-- Time Active Per Activity -->
    <g transform="translate(121.2875 18.14175)scale(0.144 -0.144)">
     <defs>
      <path d="M 1259 4147 
L 1259 2394 
L 2053 2394 
Q 2494 2394 2734 2622 
Q 2975 2850 2975 3272 
Q 2975 3691 2734 3919 
Q 2494 4147 2053 4147 
L 1259 4147 
z
M 628 4666 
L 2053 4666 
Q 2838 4666 3239 4311 
Q 3641 3956 3641 3272 
Q 3641 2581 3239 2228 
Q 2838 1875 2053 1875 
L 1259 1875 
L 1259 0 
L 628 0 
L 628 4666 
z
" id="DejaVuSans-50" transform="scale(0.015625)"/>
     </defs>
     <use xlink:href="#DejaVuSans-54"/>
     <use x="57.958984" xlink:href="#DejaVuSans-69"/>
     <use x="85.742188" xlink:href="#DejaVuSans-6d"/>
     <use x="183.154297" xlink:href="#DejaVuSans-65"/>
     <use x="244.677734" xlink:href="#DejaVuSans-20"/>
     <use x="276.464844" xlink:href="#DejaVuSans-41"/>
     <use x="343.123047" xlink:href="#DejaVuSans-63"/>
     <use x="398.103516" xlink:href="#DejaVuSans-74"/>
     <use x="437.3125" xlink:href="#DejaVuSans-69"/>
     <use x="465.095703" xlink:href="#DejaVuSans-76"/>
     <use x="524.275391" xlink:href="#DejaVuSans-65"/>
     <use x="585.798828" xlink:href="#DejaVuSans-20"/>
     <use x="617.585938" xlink:href="#DejaVuSans-50"/>
     <use x="674.263672" xlink:href="#DejaVuSans-65"/>
     <use x="735.787109" xlink:href="#DejaVuSans-72"/>
     <use x="776.900391" xlink:href="#DejaVuSans-20"/>
     <use x="808.6875" xlink:href="#DejaVuSans-41"/>
     <use x="875.345703" xlink:href="#DejaVuSans-63"/>
     <use x="930.326172" xlink:href="#DejaVuSans-74"/>
     <use x="969.535156" xlink:href="#DejaVuSans-69"/>
     <use x="997.318359" xlink:href="#DejaVuSans-76"/>
     <use x="1056.498047" xlink:href="#DejaVuSans-69"/>
     <use x="1084.28125" xlink:href="#DejaVuSans-74"/>
     <use x="1123.490234" xlink:href="#DejaVuSans-79"/>
    </g>
   </g>
   <g id="legend_1">
    <g id="patch_55">
     <path d="M 258.727813 105.8105 
L 366.83875 105.8105 
Q 368.83875 105.8105 368.83875 103.8105 
L 368.83875 31.14175 
Q 368.83875 29.14175 366.83875 29.14175 
L 258.727813 29.14175 
Q 256.727813 29.14175 256.727813 31.14175 
L 256.727813 103.8105 
Q 256.727813 105.8105 258.727813 105.8105 
z
" style="fill:#eeeeee;opacity:0.8;stroke:#cccccc;stroke-linejoin:miter;stroke-width:0.5;"/>
    </g>
    <g id="text_22">
     <!-- activity_type -->
     <g transform="translate(280.6825 40.740187)scale(0.1 -0.1)">
      <defs>
       <path d="M 3263 -1063 
L 3263 -1509 
L -63 -1509 
L -63 -1063 
L 3263 -1063 
z
" id="DejaVuSans-5f" transform="scale(0.015625)"/>
      </defs>
      <use xlink:href="#DejaVuSans-61"/>
      <use x="61.279297" xlink:href="#DejaVuSans-63"/>
      <use x="116.259766" xlink:href="#DejaVuSans-74"/>
      <use x="155.46875" xlink:href="#DejaVuSans-69"/>
      <use x="183.251953" xlink:href="#DejaVuSans-76"/>
      <use x="242.431641" xlink:href="#DejaVuSans-69"/>
      <use x="270.214844" xlink:href="#DejaVuSans-74"/>
      <use x="309.423828" xlink:href="#DejaVuSans-79"/>
      <use x="368.603516" xlink:href="#DejaVuSans-5f"/>
      <use x="418.603516" xlink:href="#DejaVuSans-74"/>
      <use x="457.8125" xlink:href="#DejaVuSans-79"/>
      <use x="516.992188" xlink:href="#DejaVuSans-70"/>
      <use x="580.46875" xlink:href="#DejaVuSans-65"/>
     </g>
    </g>
    <g id="patch_56">
     <path d="M 260.727813 55.696438 
L 280.727813 55.696438 
L 280.727813 48.696438 
L 260.727813 48.696438 
z
" style="fill:#348abd;"/>
    </g>
    <g id="text_23">
     <!-- Cycling -->
     <g transform="translate(288.727813 55.696438)scale(0.1 -0.1)">
      <defs>
       <path d="M 4122 4306 
L 4122 3641 
Q 3803 3938 3442 4084 
Q 3081 4231 2675 4231 
Q 1875 4231 1450 3742 
Q 1025 3253 1025 2328 
Q 1025 1406 1450 917 
Q 1875 428 2675 428 
Q 3081 428 3442 575 
Q 3803 722 4122 1019 
L 4122 359 
Q 3791 134 3420 21 
Q 3050 -91 2638 -91 
Q 1578 -91 968 557 
Q 359 1206 359 2328 
Q 359 3453 968 4101 
Q 1578 4750 2638 4750 
Q 3056 4750 3426 4639 
Q 3797 4528 4122 4306 
z
" id="DejaVuSans-43" transform="scale(0.015625)"/>
      </defs>
      <use xlink:href="#DejaVuSans-43"/>
      <use x="69.824219" xlink:href="#DejaVuSans-79"/>
      <use x="129.003906" xlink:href="#DejaVuSans-63"/>
      <use x="183.984375" xlink:href="#DejaVuSans-6c"/>
      <use x="211.767578" xlink:href="#DejaVuSans-69"/>
      <use x="239.550781" xlink:href="#DejaVuSans-6e"/>
      <use x="302.929688" xlink:href="#DejaVuSans-67"/>
     </g>
    </g>
    <g id="patch_57">
     <path d="M 260.727813 70.374562 
L 280.727813 70.374562 
L 280.727813 63.374562 
L 260.727813 63.374562 
z
" style="fill:#a60628;"/>
    </g>
    <g id="text_24">
     <!-- Pool Swimming -->
     <g transform="translate(288.727813 70.374562)scale(0.1 -0.1)">
      <defs>
       <path d="M 269 3500 
L 844 3500 
L 1563 769 
L 2278 3500 
L 2956 3500 
L 3675 769 
L 4391 3500 
L 4966 3500 
L 4050 0 
L 3372 0 
L 2619 2869 
L 1863 0 
L 1184 0 
L 269 3500 
z
" id="DejaVuSans-77" transform="scale(0.015625)"/>
      </defs>
      <use xlink:href="#DejaVuSans-50"/>
      <use x="56.677734" xlink:href="#DejaVuSans-6f"/>
      <use x="117.859375" xlink:href="#DejaVuSans-6f"/>
      <use x="179.041016" xlink:href="#DejaVuSans-6c"/>
      <use x="206.824219" xlink:href="#DejaVuSans-20"/>
      <use x="238.611328" xlink:href="#DejaVuSans-53"/>
      <use x="302.087891" xlink:href="#DejaVuSans-77"/>
      <use x="383.875" xlink:href="#DejaVuSans-69"/>
      <use x="411.658203" xlink:href="#DejaVuSans-6d"/>
      <use x="509.070312" xlink:href="#DejaVuSans-6d"/>
      <use x="606.482422" xlink:href="#DejaVuSans-69"/>
      <use x="634.265625" xlink:href="#DejaVuSans-6e"/>
      <use x="697.644531" xlink:href="#DejaVuSans-67"/>
     </g>
    </g>
    <g id="patch_58">
     <path d="M 260.727813 85.052687 
L 280.727813 85.052687 
L 280.727813 78.052687 
L 260.727813 78.052687 
z
" style="fill:#7a68a6;"/>
    </g>
    <g id="text_25">
     <!-- Running -->
     <g transform="translate(288.727813 85.052687)scale(0.1 -0.1)">
      <defs>
       <path d="M 2841 2188 
Q 3044 2119 3236 1894 
Q 3428 1669 3622 1275 
L 4263 0 
L 3584 0 
L 2988 1197 
Q 2756 1666 2539 1819 
Q 2322 1972 1947 1972 
L 1259 1972 
L 1259 0 
L 628 0 
L 628 4666 
L 2053 4666 
Q 2853 4666 3247 4331 
Q 3641 3997 3641 3322 
Q 3641 2881 3436 2590 
Q 3231 2300 2841 2188 
z
M 1259 4147 
L 1259 2491 
L 2053 2491 
Q 2509 2491 2742 2702 
Q 2975 2913 2975 3322 
Q 2975 3731 2742 3939 
Q 2509 4147 2053 4147 
L 1259 4147 
z
" id="DejaVuSans-52" transform="scale(0.015625)"/>
      </defs>
      <use xlink:href="#DejaVuSans-52"/>
      <use x="64.982422" xlink:href="#DejaVuSans-75"/>
      <use x="128.361328" xlink:href="#DejaVuSans-6e"/>
      <use x="191.740234" xlink:href="#DejaVuSans-6e"/>
      <use x="255.119141" xlink:href="#DejaVuSans-69"/>
      <use x="282.902344" xlink:href="#DejaVuSans-6e"/>
      <use x="346.28125" xlink:href="#DejaVuSans-67"/>
     </g>
    </g>
    <g id="patch_59">
     <path d="M 260.727813 99.730813 
L 280.727813 99.730813 
L 280.727813 92.730813 
L 260.727813 92.730813 
z
" style="fill:#467821;"/>
    </g>
    <g id="text_26">
     <!-- Walking -->
     <g transform="translate(288.727813 99.730813)scale(0.1 -0.1)">
      <defs>
       <path d="M 213 4666 
L 850 4666 
L 1831 722 
L 2809 4666 
L 3519 4666 
L 4500 722 
L 5478 4666 
L 6119 4666 
L 4947 0 
L 4153 0 
L 3169 4050 
L 2175 0 
L 1381 0 
L 213 4666 
z
" id="DejaVuSans-57" transform="scale(0.015625)"/>
       <path d="M 581 4863 
L 1159 4863 
L 1159 1991 
L 2875 3500 
L 3609 3500 
L 1753 1863 
L 3688 0 
L 2938 0 
L 1159 1709 
L 1159 0 
L 581 0 
L 581 4863 
z
" id="DejaVuSans-6b" transform="scale(0.015625)"/>
      </defs>
      <use xlink:href="#DejaVuSans-57"/>
      <use x="92.501953" xlink:href="#DejaVuSans-61"/>
      <use x="153.78125" xlink:href="#DejaVuSans-6c"/>
      <use x="181.564453" xlink:href="#DejaVuSans-6b"/>
      <use x="239.474609" xlink:href="#DejaVuSans-69"/>
      <use x="267.257812" xlink:href="#DejaVuSans-6e"/>
      <use x="330.636719" xlink:href="#DejaVuSans-67"/>
     </g>
    </g>
   </g>
  </g>
 </g>
 <defs>
  <clipPath id="p1b88afeb42">
   <rect height="217.44" width="334.8" x="39.03875" y="24.14175"/>
  </clipPath>
 </defs>
</svg>
